<svg width="32" height="28" viewBox="0 0 32 28" fill="none" xmlns="http://www.w3.org/2000/svg">
<path fill-rule="evenodd" clip-rule="evenodd" d="M28 14C28 20.6274 22.6274 26 16 26C9.37258 26 4 20.6274 4 14C4 7.37258 9.37258 2 16 2C22.6274 2 28 7.37258 28 14ZM30 14C30 21.732 23.732 28 16 28C8.26801 28 2 21.732 2 14C2 6.26801 8.26801 0 16 0C23.732 0 30 6.26801 30 14ZM17.0267 18H14.8827V20H17.0267V18ZM12.5947 10.608C12.424 11.088 12.3387 11.6213 12.3387 12.208H14.1627C14.1627 11.4827 14.3174 10.9067 14.6267 10.48C14.9467 10.0427 15.4374 9.824 16.0987 9.824C16.2374 9.824 16.3974 9.856 16.5787 9.92C16.76 9.984 16.9307 10.0853 17.0907 10.224C17.2507 10.3627 17.384 10.5493 17.4907 10.784C17.608 11.008 17.6667 11.28 17.6667 11.6C17.6667 11.8667 17.6294 12.096 17.5547 12.288C17.4907 12.48 17.3947 12.656 17.2667 12.816C17.1494 12.9653 17.0107 13.104 16.8507 13.232C16.7014 13.36 16.5414 13.4987 16.3707 13.648C16.1574 13.8293 15.9707 14.016 15.8107 14.208C15.6614 14.3893 15.5334 14.6027 15.4267 14.848C15.32 15.0933 15.24 15.3813 15.1867 15.712C15.144 16.032 15.1227 16.4267 15.1227 16.896H16.8507C16.8507 16.512 16.8827 16.1867 16.9467 15.92C17.0214 15.6533 17.1227 15.424 17.2507 15.232C17.3787 15.0293 17.528 14.848 17.6987 14.688C17.8694 14.528 18.056 14.3627 18.2587 14.192L18.7707 13.744C18.9414 13.584 19.0907 13.408 19.2187 13.216C19.3574 13.0133 19.464 12.7787 19.5387 12.512C19.624 12.2347 19.6667 11.9093 19.6667 11.536C19.6667 11.024 19.576 10.5653 19.3947 10.16C19.2134 9.75467 18.9627 9.41867 18.6427 9.152C18.3334 8.87467 17.9654 8.66667 17.5387 8.528C17.1227 8.37867 16.6694 8.304 16.1787 8.304C15.592 8.304 15.0587 8.4 14.5787 8.592C14.1094 8.77333 13.704 9.03467 13.3627 9.376C13.032 9.71733 12.776 10.128 12.5947 10.608Z" fill="#BDBDBD"/>
</svg>
