<?xml version="1.0" encoding="UTF-8"?>
<svg width="280px" height="48px" viewBox="0 0 280 48" version="1.1" xmlns="http://www.w3.org/2000/svg" xmlns:xlink="http://www.w3.org/1999/xlink">
    <!-- Generator: Sketch 49.3 (51167) - http://www.bohemiancoding.com/sketch -->
    <title>02</title>
    <desc>Created with Sketch.</desc>
    <defs></defs>
    <g id="02" stroke="none" stroke-width="1" fill="none" fill-rule="evenodd">
        <g id="Group-Copy-3">
            <g id="Group">
                <g id="Group-6" fill="#1688CA">
                    <g id="Group-5">
                        <path d="M28.8163265,34.4956268 L25.5219124,30.5737052 L11,48 L0,48 L20,24 L3.55271368e-15,0 L11,0 L31,24 L34.4146341,28.097561 L37.485623,24.5878594 L37,24 L17,0 L28,0 L48,24 L51,27.6 L54,24 L34,0 L45,0 L65,24 L45,48 L34,48 L45.4628821,34.2445415 L42.4759825,30.628821 L28,48 L17,48 L28.8163265,34.4956268 Z" id="Combined-Shape-Copy"></path>
                    </g>
                </g>
                <g id="Group-Copy-8" transform="translate(78.000000, 10.000000)" fill="#1C3755">
                    <path d="M184.011632,17.8075709 L173.284501,0.476458893 L182.197804,0.476458893 L188.00443,10.565149 L193.851134,0.476458893 L202.601143,0.476458893 L191.875503,17.6895789 L191.875503,28.175935 L184.011632,28.175935 L184.011632,17.8075709 Z M136.00764,0.476162803 L123.909012,0.476162803 L123.909012,28.1771029 L131.732822,28.1771029 L131.732822,6.92618086 L135.402031,6.92618086 C138.225213,6.92618086 139.918808,8.19200047 139.918808,10.5648694 C139.918808,12.8211938 138.225213,14.2472477 135.442125,14.2472477 L133.321034,14.2472477 L134.284344,20.2617167 L135.603895,20.2617167 C142.620265,20.2617167 147.741143,16.8182176 147.741143,10.2881071 C147.741143,4.07698465 143.144227,0.476162803 136.00764,0.476162803 L136.00764,0.476162803 Z M0,28.1765271 L7.8638878,28.1765271 L7.8638878,0.475587071 L0,0.475587071 L0,28.1765271 Z M41.216205,24.0607876 L45.5711788,18.9567145 C48.3542667,21.13293 51.4594523,22.27931 54.7249325,22.27931 C56.8222721,22.27931 57.9518267,21.567015 57.9518267,20.3011954 C57.9518267,19.1519039 57.0241196,18.5197178 53.1931245,17.6501002 C47.1846342,16.3056357 42.5476406,14.6421501 42.5476406,8.86511277 C42.5476406,3.72026144 46.7007501,0 53.4751444,0 C58.2739244,0 62.0247805,1.2658196 65.0883965,3.68093076 L61.1772291,9.10254442 C58.5960221,7.32106684 55.7743315,6.37134025 53.2732802,6.37134025 C51.3778048,6.37134025 50.4501145,7.16374411 50.4501145,8.23146274 C50.4501145,9.49729879 51.4178827,10.052271 55.3305252,10.9204247 C61.8229163,12.3071479 65.8557923,14.3639238 65.8557923,19.6282312 C65.8557923,25.2872765 61.2989544,28.6506667 54.4429126,28.6506667 C49.4422684,28.6506667 44.685058,27.1095323 41.216205,24.0607876 L41.216205,24.0607876 Z M75.7433677,7.20307479 L68.6825116,7.20307479 L67.2753958,0.476310848 L92.0351831,0.476310848 L92.0351831,7.20307479 L83.5671944,7.20307479 L83.5671944,28.1758034 L75.7433677,28.1758034 L75.7433677,7.20307479 Z M108.453903,17.2530264 L105.308657,9.37988248 L102.123315,17.2530264 L108.453903,17.2530264 Z M101.599353,0.277338061 L109.139652,0.277338061 L121.156649,28.1763791 L112.768799,28.1763791 L110.711554,23.2296287 L99.8256032,23.2296287 L97.8084193,28.1763791 L89.5823727,28.1763791 L101.599353,0.277338061 Z M13.0188593,0.483565064 L20.176214,0.483565064 L31.1959923,15.9361806 L31.1959923,0.483565064 L38.3431222,0.483565064 L38.3431222,28.1844722 L31.1959923,28.1844722 L20.176214,12.7392261 L20.176214,28.1844722 L13.0188593,28.1844722 L13.0188593,0.483565064 Z M164.846784,17.2530264 L161.701538,9.37988248 L158.516196,17.2530264 L164.846784,17.2530264 Z M157.992234,0.277338061 L165.532549,0.277338061 L177.549547,28.1763791 L169.16168,28.1763791 L167.104435,23.2296287 L156.218484,23.2296287 L154.2013,28.1763791 L145.975237,28.1763791 L157.992234,0.277338061 Z" id="Fill-1"></path>
                </g>
            </g>
        </g>
    </g>
</svg>